<svg width="24" height="24" viewBox="0 0 24 24" fill="none" xmlns="http://www.w3.org/2000/svg">
<path d="M5.5 21.2393V7.5C5.5 6.39543 6.39543 5.5 7.5 5.5H20C21.1046 5.5 22 6.39543 22 7.5V18.1667C22 19.2712 21.1046 20.1667 20 20.1667H10.1565C9.88362 20.1667 9.61364 20.2225 9.36317 20.3307L6.19833 21.6983C5.86823 21.8409 5.5 21.5989 5.5 21.2393Z" stroke="#121219" stroke-width="1.5"/>
<path d="M18.3329 13.75C18.8391 13.75 19.2495 13.3396 19.2495 12.8334C19.2495 12.3271 18.8391 11.9167 18.3329 11.9167C17.8266 11.9167 17.4162 12.3271 17.4162 12.8334C17.4162 13.3396 17.8266 13.75 18.3329 13.75Z" fill="#121219"/>
<path d="M13.7499 13.75C14.2562 13.75 14.6666 13.3396 14.6666 12.8334C14.6666 12.3271 14.2562 11.9167 13.7499 11.9167C13.2436 11.9167 12.8332 12.3271 12.8332 12.8334C12.8332 13.3396 13.2436 13.75 13.7499 13.75Z" fill="#121219"/>
<path d="M9.16667 13.75C9.67293 13.75 10.0833 13.3396 10.0833 12.8334C10.0833 12.3271 9.67293 11.9167 9.16667 11.9167C8.66041 11.9167 8.25 12.3271 8.25 12.8334C8.25 13.3396 8.66041 13.75 9.16667 13.75Z" fill="#121219"/>
<path d="M18.5 5V4C18.5 2.89543 17.6046 2 16.5 2H4C2.89543 2 2 2.89543 2 4V17.7393C2 18.0989 2.36823 18.3409 2.69833 18.1983L5 17.2037" stroke="#121219" stroke-width="1.5"/>
</svg>
