<svg width="0" height="0" class="hidden">
  <symbol xmlns:xlink="http://www.w3.org/1999/xlink" xmlns="http://www.w3.org/2000/svg" role="img" fill="none" stroke="currentColor" stroke-width="2" stroke-linecap="round" stroke-linejoin="round" viewBox="0 0 24 24" id="CodePen">
    <title>CodePen</title>
    <polygon points="12 2 22 8.5 22 15.5 12 22 2 15.5 2 8.5 12 2" stroke="#A8B2D1" fill="none" stroke-width="2px"></polygon>
    <line x1="12" y1="22" x2="12" y2="15.5" stroke="#A8B2D1" fill="none" stroke-width="2px"></line>
    <polyline points="22 8.5 12 15.5 2 8.5" stroke="#A8B2D1" fill="none" stroke-width="2px"></polyline>
    <polyline points="2 15.5 12 8.5 22 15.5" stroke="#A8B2D1" fill="none" stroke-width="2px"></polyline>
    <line x1="12" y1="2" x2="12" y2="8.5" stroke="#A8B2D1" fill="none" stroke-width="2px"></line>
  </symbol>
  <symbol xmlns:xlink="http://www.w3.org/1999/xlink" xmlns="http://www.w3.org/2000/svg" role="img" fill="none" stroke="currentColor" stroke-width="2" stroke-linecap="round" stroke-linejoin="round" viewBox="0 0 24 24" id="CodePen-1">
    <title>CodePen</title>
    <polygon points="12 2 22 8.5 22 15.5 12 22 2 15.5 2 8.5 12 2" stroke="#8892B0" fill="none" stroke-width="2px"></polygon>
    <line x1="12" y1="22" x2="12" y2="15.5" stroke="#8892B0" fill="none" stroke-width="2px"></line>
    <polyline points="22 8.5 12 15.5 2 8.5" stroke="#8892B0" fill="none" stroke-width="2px"></polyline>
    <polyline points="2 15.5 12 8.5 22 15.5" stroke="#8892B0" fill="none" stroke-width="2px"></polyline>
    <line x1="12" y1="2" x2="12" y2="8.5" stroke="#8892B0" fill="none" stroke-width="2px"></line>
  </symbol>
  <symbol xmlns:xlink="http://www.w3.org/1999/xlink" xmlns="http://www.w3.org/2000/svg" role="img" fill="none" stroke="currentColor" stroke-width="2" stroke-linecap="round" stroke-linejoin="round" viewBox="0 0 24 24" id="External">
    <title>External</title>
    <path d="M18 13v6a2 2 0 0 1-2 2H5a2 2 0 0 1-2-2V8a2 2 0 0 1 2-2h6" stroke="#CCD6F6" fill="none" stroke-width="2px"></path>
    <polyline points="15 3 21 3 21 9" stroke="#CCD6F6" fill="none" stroke-width="2px"></polyline>
    <line x1="10" y1="14" x2="21" y2="3" stroke="#CCD6F6" fill="none" stroke-width="2px"></line>
  </symbol>
  <symbol xmlns:xlink="http://www.w3.org/1999/xlink" xmlns="http://www.w3.org/2000/svg" role="img" fill="none" stroke="currentColor" stroke-width="2" stroke-linecap="round" stroke-linejoin="round" viewBox="0 0 24 24" id="External-1">
    <title>External</title>
    <path d="M18 13v6a2 2 0 0 1-2 2H5a2 2 0 0 1-2-2V8a2 2 0 0 1 2-2h6" stroke="#A8B2D1" fill="none" stroke-width="2px"></path>
    <polyline points="15 3 21 3 21 9" stroke="#A8B2D1" fill="none" stroke-width="2px"></polyline>
    <line x1="10" y1="14" x2="21" y2="3" stroke="#A8B2D1" fill="none" stroke-width="2px"></line>
  </symbol>
  <symbol xmlns:xlink="http://www.w3.org/1999/xlink" xmlns="http://www.w3.org/2000/svg" role="img" fill="none" stroke="currentColor" stroke-width="1" stroke-linecap="round" stroke-linejoin="round" viewBox="0 0 24 24" id="Folder">
    <title>Folder</title>
    <path d="M22 19a2 2 0 0 1-2 2H4a2 2 0 0 1-2-2V5a2 2 0 0 1 2-2h5l2 3h9a2 2 0 0 1 2 2z" stroke="#64FFDA" fill="none"></path>
  </symbol>
  <symbol xmlns:xlink="http://www.w3.org/1999/xlink" xmlns="http://www.w3.org/2000/svg" fill="none" stroke="currentColor" stroke-width="2" stroke-linecap="round" stroke-linejoin="round" viewBox="0 0 24 24" id="Git Fork">
    <title>Git Fork</title>
    <line x1="6" y1="3" x2="6" y2="15" stroke="#A8B2D1" fill="none" stroke-width="2px"></line>
    <circle cx="18" cy="6" r="3" stroke="#A8B2D1" fill="none" stroke-width="2px"></circle>
    <circle cx="6" cy="18" r="3" stroke="#A8B2D1" fill="none" stroke-width="2px"></circle>
    <path d="M18 9a9 9 0 0 1-9 9" stroke="#A8B2D1" fill="none" stroke-width="2px"></path>
  </symbol>
  <symbol xmlns:xlink="http://www.w3.org/1999/xlink" xmlns="http://www.w3.org/2000/svg" role="img" fill="none" stroke="currentColor" stroke-width="2" stroke-linecap="round" stroke-linejoin="round" viewBox="0 0 24 24" id="GitHub">
    <title>GitHub</title>
    <path d="M9 19c-5 1.5-5-2.5-7-3m14 6v-3.87a3.37 3.37 0 0 0-.94-2.61c3.14-.35 6.44-1.54 6.44-7A5.44 5.44 0 0 0 20 4.77 5.07 5.07 0 0 0 19.91 1S18.73.65 16 2.48a13.38 13.38 0 0 0-7 0C6.27.65 5.09 1 5.09 1A5.07 5.07 0 0 0 5 4.77a5.44 5.44 0 0 0-1.5 3.78c0 5.42 3.3 6.61 6.44 7A3.37 3.37 0 0 0 9 18.13V22" stroke="#A8B2D1" fill="none" stroke-width="2px"></path>
  </symbol>
  <symbol xmlns:xlink="http://www.w3.org/1999/xlink" xmlns="http://www.w3.org/2000/svg" role="img" fill="none" stroke="currentColor" stroke-width="2" stroke-linecap="round" stroke-linejoin="round" viewBox="0 0 24 24" id="GitHub-1">
    <title>GitHub</title>
    <path d="M9 19c-5 1.5-5-2.5-7-3m14 6v-3.87a3.37 3.37 0 0 0-.94-2.61c3.14-.35 6.44-1.54 6.44-7A5.44 5.44 0 0 0 20 4.77 5.07 5.07 0 0 0 19.91 1S18.73.65 16 2.48a13.38 13.38 0 0 0-7 0C6.27.65 5.09 1 5.09 1A5.07 5.07 0 0 0 5 4.77a5.44 5.44 0 0 0-1.5 3.78c0 5.42 3.3 6.61 6.44 7A3.37 3.37 0 0 0 9 18.13V22" stroke="#CCD6F6" fill="none" stroke-width="2px"></path>
  </symbol>
  <symbol xmlns:xlink="http://www.w3.org/1999/xlink" xmlns="http://www.w3.org/2000/svg" role="img" fill="none" stroke="currentColor" stroke-width="2" stroke-linecap="round" stroke-linejoin="round" viewBox="0 0 24 24" id="GitHub-2">
    <title>GitHub</title>
    <path d="M9 19c-5 1.5-5-2.5-7-3m14 6v-3.87a3.37 3.37 0 0 0-.94-2.61c3.14-.35 6.44-1.54 6.44-7A5.44 5.44 0 0 0 20 4.77 5.07 5.07 0 0 0 19.91 1S18.73.65 16 2.48a13.38 13.38 0 0 0-7 0C6.27.65 5.09 1 5.09 1A5.07 5.07 0 0 0 5 4.77a5.44 5.44 0 0 0-1.5 3.78c0 5.42 3.3 6.61 6.44 7A3.37 3.37 0 0 0 9 18.13V22" stroke="#8892B0" fill="none" stroke-width="2px"></path>
  </symbol>
  <symbol xmlns:xlink="http://www.w3.org/1999/xlink" xmlns="http://www.w3.org/2000/svg" role="img" fill="none" stroke="currentColor" stroke-width="2" stroke-linecap="round" stroke-linejoin="round" viewBox="0 0 24 24" id="Instagram">
    <title>Instagram</title>
    <rect x="2" y="2" width="20" height="20" rx="5" ry="5" stroke="#A8B2D1" fill="none" stroke-width="2px"></rect>
    <path d="M16 11.37A4 4 0 1 1 12.63 8 4 4 0 0 1 16 11.37z" stroke="#A8B2D1" fill="none" stroke-width="2px"></path>
    <line x1="17.5" y1="6.5" x2="17.51" y2="6.5" stroke="#A8B2D1" fill="none" stroke-width="2px"></line>
  </symbol>
  <symbol xmlns:xlink="http://www.w3.org/1999/xlink" xmlns="http://www.w3.org/2000/svg" role="img" fill="none" stroke="currentColor" stroke-width="2" stroke-linecap="round" stroke-linejoin="round" viewBox="0 0 24 24" id="Instagram-1">
    <title>Instagram</title>
    <rect x="2" y="2" width="20" height="20" rx="5" ry="5" stroke="#8892B0" fill="none" stroke-width="2px"></rect>
    <path d="M16 11.37A4 4 0 1 1 12.63 8 4 4 0 0 1 16 11.37z" stroke="#8892B0" fill="none" stroke-width="2px"></path>
    <line x1="17.5" y1="6.5" x2="17.51" y2="6.5" stroke="#8892B0" fill="none" stroke-width="2px"></line>
  </symbol>
  <symbol xmlns:xlink="http://www.w3.org/1999/xlink" xmlns="http://www.w3.org/2000/svg" role="img" fill="none" stroke="currentColor" stroke-width="2" stroke-linecap="round" stroke-linejoin="round" viewBox="0 0 24 24" id="LinkedIn">
    <title>LinkedIn</title>
    <path d="M16 8a6 6 0 0 1 6 6v7h-4v-7a2 2 0 0 0-2-2 2 2 0 0 0-2 2v7h-4v-7a6 6 0 0 1 6-6z" stroke="#A8B2D1" fill="none" stroke-width="2px"></path>
    <rect x="2" y="9" width="4" height="12" stroke="#A8B2D1" fill="none" stroke-width="2px"></rect>
    <circle cx="4" cy="4" r="2" stroke="#A8B2D1" fill="none" stroke-width="2px"></circle>
  </symbol>
  <symbol xmlns:xlink="http://www.w3.org/1999/xlink" xmlns="http://www.w3.org/2000/svg" role="img" fill="none" stroke="currentColor" stroke-width="2" stroke-linecap="round" stroke-linejoin="round" viewBox="0 0 24 24" id="LinkedIn-1">
    <title>LinkedIn</title>
    <path d="M16 8a6 6 0 0 1 6 6v7h-4v-7a2 2 0 0 0-2-2 2 2 0 0 0-2 2v7h-4v-7a6 6 0 0 1 6-6z" stroke="#8892B0" fill="none" stroke-width="2px"></path>
    <rect x="2" y="9" width="4" height="12" stroke="#8892B0" fill="none" stroke-width="2px"></rect>
    <circle cx="4" cy="4" r="2" stroke="#8892B0" fill="none" stroke-width="2px"></circle>
  </symbol>
  <symbol xmlns:xlink="http://www.w3.org/1999/xlink" xmlns="http://www.w3.org/2000/svg" fill="none" stroke="currentColor" stroke-width="2" stroke-linecap="round" stroke-linejoin="round" viewBox="0 0 24 24" id="Star">
    <title>Star</title>
    <polygon points="12 2 15.09 8.26 22 9.27 17 14.14 18.18 21.02 12 17.77 5.82 21.02 7 14.14 2 9.27 8.91 8.26 12 2" stroke="#A8B2D1" fill="none" stroke-width="2px"></polygon>
  </symbol>
  <symbol xmlns:xlink="http://www.w3.org/1999/xlink" xmlns="http://www.w3.org/2000/svg" role="img" fill="none" stroke="currentColor" stroke-width="2" stroke-linecap="round" stroke-linejoin="round" viewBox="0 0 24 24" id="Twitter-1">
    <title>Twitter</title>
    <path d="M23 3a10.9 10.9 0 0 1-3.14 1.53 4.48 4.48 0 0 0-7.86 3v1A10.66 10.66 0 0 1 3 4s-4 9 5 13a11.64 11.64 0 0 1-7 2c9 5 20 0 20-11.5a4.5 4.5 0 0 0-.08-.83A7.72 7.72 0 0 0 23 3z" stroke="#8892B0" fill="none" stroke-width="2px"></path>
  </symbol>
</svg>